<?xml version="1.0" encoding="utf-8"?>
<svg width="800px" height="800px" viewBox="0 0 24 24" fill="none" xmlns="http://www.w3.org/2000/svg" xmlns:bx="https://boxy-svg.com"><defs><bx:export><bx:file format="svg" path="Sin título.svg"/></bx:export></defs><rect x="-0.028" y="-0.028" width="24.114" height="24.142" style="fill: rgb(107, 63, 233);"/><path d="M 18.014 14.613 L 18.014 6.372 C 18.014 5.565 17.262 4.951 16.438 5.086 L 9.008 6.297 C 8.358 6.403 7.882 6.947 7.882 7.584 L 7.882 13.391 C 7.666 13.337 7.44 13.309 7.207 13.309 C 5.715 13.309 4.505 14.477 4.505 15.918 C 4.505 17.359 5.715 18.527 7.207 18.527 C 8.699 18.527 9.909 17.359 9.909 15.918 L 9.909 8.135 L 15.988 7.144 L 15.988 12.086 C 15.772 12.032 15.545 12.004 15.312 12.004 C 13.82 12.004 12.61 13.172 12.61 14.613 C 12.61 16.054 13.82 17.222 15.312 17.222 C 16.804 17.222 18.014 16.054 18.014 14.613 Z" style="fill: rgb(255, 255, 255);"/></svg>